<?xml version="1.0" encoding="utf-8"?>
<!-- Generator: Adobe Illustrator 27.0.1, SVG Export Plug-In . SVG Version: 6.00 Build 0)  -->
<svg version="1.1" id="Calque_1" xmlns="http://www.w3.org/2000/svg" xmlns:xlink="http://www.w3.org/1999/xlink" x="0px" y="0px"
	 viewBox="0 0 1280 1024" style="enable-background:new 0 0 1280 1024;" xml:space="preserve">
<style type="text/css">
	.st0{fill:#1D1D1B;}
	.st1{fill:none;stroke:#DA7736;stroke-width:5;stroke-linecap:round;stroke-linejoin:round;stroke-miterlimit:10;}
	.st2{fill:url(#SVGID_1_);}
	.st3{fill:url(#SVGID_00000089573264002303345470000014769663162329154452_);}
	.st4{fill:url(#SVGID_00000062163007239222406980000000601579146189845168_);}
	.st5{fill:url(#SVGID_00000143607751609463314940000015419667051445145490_);}
	.st6{fill:url(#SVGID_00000108995895475775059230000000842715757009307052_);}
</style>
<circle class="st0" cx="1845.36" cy="542.64" r="491.55"/>
<path class="st1" d="M625.85,254.57"/>
<g>
	<g>
		<path class="st0" d="M465.12,835.04c5.17,5.48,7.76,13.31,7.76,23.48v42.58h-15.12v-40.99c0-6.37-1.59-11.3-4.78-14.79
			c-3.18-3.49-7.56-5.24-13.13-5.24c-5.93,0-10.63,1.88-14.13,5.64c-3.49,3.76-5.24,9.26-5.24,16.51v38.87h-15.12v-40.99
			c0-6.37-1.59-11.3-4.78-14.79c-3.18-3.49-7.56-5.24-13.13-5.24c-5.93,0-10.63,1.88-14.13,5.64c-3.49,3.76-5.24,9.26-5.24,16.51
			v38.87h-15.12v-73.09h15.12v15.25c1.86-5.31,4.95-9.37,9.28-12.2c4.33-2.83,9.42-4.24,15.25-4.24c6.1,0,11.38,1.51,15.85,4.51
			c4.46,3.01,7.71,7.34,9.75,13c2.12-5.48,5.53-9.77,10.21-12.87c4.69-3.09,9.99-4.64,15.92-4.64
			C453.02,826.81,459.94,829.55,465.12,835.04z"/>
		<path class="st0" d="M557.9,867.53h-56.24c0.27,7.52,2.34,13.09,6.23,16.71c3.89,3.63,8.71,5.44,14.46,5.44
			c5.04,0,9.31-1.28,12.8-3.85c3.49-2.56,5.64-5.97,6.43-10.21h16.18c-0.97,5.13-3.01,9.68-6.1,13.66c-3.1,3.98-7.12,7.1-12.07,9.35
			c-4.95,2.25-10.48,3.38-16.58,3.38c-7.08,0-13.33-1.5-18.77-4.51c-5.44-3.01-9.71-7.34-12.8-13c-3.1-5.66-4.64-12.34-4.64-20.03
			c0-7.6,1.55-14.24,4.64-19.9c3.09-5.66,7.36-9.99,12.8-13c5.44-3.01,11.69-4.51,18.77-4.51c7.16,0,13.42,1.48,18.77,4.45
			c5.35,2.96,9.46,7.03,12.34,12.2c2.87,5.17,4.31,10.94,4.31,17.31C558.43,863.51,558.25,865.68,557.9,867.53z M540.72,848.63
			c-1.81-3.23-4.29-5.61-7.43-7.16c-3.14-1.55-6.57-2.32-10.28-2.32c-5.93,0-10.88,1.81-14.86,5.44c-3.98,3.63-6.15,8.98-6.5,16.05
			h41.52C543.35,855.86,542.53,851.86,540.72,848.63z"/>
		<path class="st0" d="M640.4,828.01v73.09h-15.25v-15.92c-1.86,5.39-5.09,9.57-9.68,12.53c-4.6,2.96-9.95,4.45-16.05,4.45
			c-8.49,0-15.3-2.74-20.43-8.23c-5.13-5.48-7.69-13.31-7.69-23.48v-42.45h15.12v40.85c0,6.63,1.68,11.74,5.04,15.32
			c3.36,3.58,7.96,5.37,13.8,5.37c6.01,0,10.83-1.95,14.46-5.84c3.63-3.89,5.44-9.55,5.44-16.98v-38.73H640.4z"/>
		<path class="st0" d="M717.53,831.59c4.99,3.01,8.91,7.34,11.74,13c2.83,5.66,4.25,12.29,4.25,19.9c0,7.69-1.42,14.37-4.25,20.03
			c-2.83,5.66-6.74,9.99-11.74,13c-5,3.01-10.68,4.51-17.04,4.51c-6.63,0-12.29-1.63-16.98-4.91c-4.69-3.27-7.96-7.6-9.81-13v16.98
			h-15.12v-98.15h15.12v42.05c1.85-5.39,5.13-9.73,9.81-13c4.69-3.27,10.35-4.91,16.98-4.91
			C706.85,827.08,712.53,828.58,717.53,831.59z M684.43,843.33c-3.36,1.99-6.02,4.82-7.96,8.49c-1.95,3.67-2.92,7.89-2.92,12.67
			c0,4.86,0.97,9.11,2.92,12.73c1.94,3.63,4.6,6.43,7.96,8.42c3.36,1.99,7.16,2.98,11.41,2.98c6.72,0,12.11-2.14,16.18-6.43
			c4.07-4.29,6.1-10.19,6.1-17.71c0-7.43-2.04-13.31-6.1-17.64c-4.07-4.33-9.46-6.5-16.18-6.5
			C691.6,840.34,687.8,841.34,684.43,843.33z"/>
		<path class="st0" d="M763.22,802.94v98.15H748.1v-98.15H763.22z"/>
		<path class="st0" d="M834.05,831.59c5.66,3.01,10.08,7.34,13.26,13c3.18,5.66,4.77,12.29,4.77,19.9c0,7.69-1.59,14.37-4.77,20.03
			c-3.18,5.66-7.61,9.99-13.26,13c-5.66,3.01-12.03,4.51-19.1,4.51s-13.42-1.5-19.03-4.51c-5.62-3.01-10.04-7.36-13.26-13.07
			c-3.23-5.7-4.84-12.35-4.84-19.96c0-7.6,1.61-14.24,4.84-19.9c3.23-5.66,7.65-9.99,13.26-13c5.61-3.01,11.96-4.51,19.03-4.51
			S828.39,828.58,834.05,831.59z M804.21,842.86c-3.27,1.77-5.9,4.49-7.89,8.16c-1.99,3.67-2.98,8.16-2.98,13.46
			c0,5.39,0.99,9.9,2.98,13.53c1.99,3.63,4.62,6.32,7.89,8.09c3.27,1.77,6.85,2.65,10.74,2.65s7.47-0.88,10.74-2.65
			c3.27-1.77,5.9-4.46,7.89-8.09c1.99-3.62,2.98-8.13,2.98-13.53c0-5.31-0.99-9.79-2.98-13.46c-1.99-3.67-4.62-6.39-7.89-8.16
			c-3.27-1.77-6.85-2.65-10.74-2.65S807.48,841.1,804.21,842.86z"/>
		<path class="st0" d="M909.92,901.09l-17.91-25.87l-15.65,25.87h-16.84l24.14-37.93l-24.4-35.15h17.11l17.51,25.2l15.52-25.2h16.71
			l-24.14,36.87l25.07,36.21H909.92z"/>
	</g>
	<g>
		<g>
			<linearGradient id="SVGID_1_" gradientUnits="userSpaceOnUse" x1="264.4007" y1="518.0769" x2="811.1295" y2="263.1331">
				<stop  offset="0" style="stop-color:#FDD210"/>
				<stop  offset="1" style="stop-color:#E32055"/>
			</linearGradient>
			<path class="st2" d="M367.64,502.46l60.57-34.97c6.66-3.84,10.63-10.73,10.63-18.41c0-7.69-3.97-14.57-10.63-18.41l-20.59-11.89
				v51.76L367.64,502.46z"/>
		</g>
		<g>
			
				<linearGradient id="SVGID_00000149356278354148310420000001985116091995515009_" gradientUnits="userSpaceOnUse" x1="322.8351" y1="301.1783" x2="867.642" y2="555.2259">
				<stop  offset="0" style="stop-color:#CF1D7B"/>
				<stop  offset="1" style="stop-color:#502776"/>
			</linearGradient>
			<path style="fill:url(#SVGID_00000149356278354148310420000001985116091995515009_);" d="M847.29,428.05l76.5-44.17v-218.6
				h-218.6l-44.17,76.5c-9.34,16.18-32.7,16.18-42.04,0l-44.17-76.5h-218.6v218.6l76.5,44.17c16.18,9.34,16.18,32.7,0,42.04
				l-76.5,44.17v218.6h218.6V519.42L640,564.58l65.19-45.17v213.45h218.6v-218.6l-76.5-44.17
				C831.1,460.75,831.1,437.4,847.29,428.05z"/>
		</g>
		<g>
			
				<linearGradient id="SVGID_00000016047453431310842490000016347676547330722438_" gradientUnits="userSpaceOnUse" x1="541.304" y1="624.3224" x2="1008.8904" y2="406.2834">
				<stop  offset="0" style="stop-color:#FDD210"/>
				<stop  offset="1" style="stop-color:#E32055"/>
			</linearGradient>
			<path style="fill:url(#SVGID_00000016047453431310842490000016347676547330722438_);" d="M851.79,467.49l60.57,34.97
				l-39.98-31.93v-51.76l-20.59,11.89c-6.66,3.84-10.63,10.73-10.63,18.41C841.16,456.76,845.14,463.65,851.79,467.49z"/>
		</g>
		<g>
			
				<linearGradient id="SVGID_00000116223749719477835220000011214131163640248760_" gradientUnits="userSpaceOnUse" x1="153.2822" y1="378.4464" x2="925.2663" y2="18.4643">
				<stop  offset="0" style="stop-color:#FDD210"/>
				<stop  offset="1" style="stop-color:#E32055"/>
			</linearGradient>
			<path style="fill:url(#SVGID_00000116223749719477835220000011214131163640248760_);" d="M574.81,159.27
				c1.08,0,2.07,0.57,2.61,1.51l44.17,76.5c3.84,6.66,10.73,10.63,18.41,10.63c7.69,0,14.57-3.97,18.41-10.63l44.17-76.5
				c0.54-0.93,1.53-1.51,2.61-1.51h210l-46.86-37.43h-173.9l-30.8,53.35c-4.93,8.54-13.77,13.64-23.63,13.64c0,0,0,0,0,0
				c-9.86,0-18.7-5.1-23.63-13.64l-30.8-53.35h-173.9l-46.87,37.43H574.81z"/>
		</g>
		<g>
			
				<linearGradient id="SVGID_00000068650807406119249720000017307635920693768370_" gradientUnits="userSpaceOnUse" x1="356.7681" y1="752.7258" x2="1056.3076" y2="426.5252">
				<stop  offset="0" style="stop-color:#FDD210"/>
				<stop  offset="1" style="stop-color:#E32055"/>
			</linearGradient>
			<path style="fill:url(#SVGID_00000068650807406119249720000017307635920693768370_);" d="M636.57,569.53l-55.74-38.62v179.47
				l53.95-93.45c1.08-1.86,3.06-3.01,5.22-3.01c2.15,0,4.14,1.15,5.22,3.01l53.95,93.45V530.92l-55.74,38.62
				c-1.03,0.71-2.23,1.07-3.43,1.07S637.6,570.25,636.57,569.53z"/>
		</g>
	</g>
</g>
</svg>
