<?xml version="1.0" encoding="utf-8"?>
<!-- Generator: Adobe Illustrator 27.5.0, SVG Export Plug-In . SVG Version: 6.00 Build 0)  -->
<svg version="1.1" id="Calque_1" xmlns="http://www.w3.org/2000/svg" xmlns:xlink="http://www.w3.org/1999/xlink" x="0px" y="0px"
	 viewBox="0 0 1280 1024" style="enable-background:new 0 0 1280 1024;" xml:space="preserve">
<style type="text/css">
	.st0{fill:none;stroke:#DA7736;stroke-width:5;stroke-linecap:round;stroke-linejoin:round;stroke-miterlimit:10;}
	.st1{fill:#1D1D1B;}
	.st2{fill:url(#SVGID_1_);}
	.st3{fill:url(#SVGID_00000017485400977067134830000000118658289650655402_);}
	.st4{fill:url(#SVGID_00000163759841110398732070000002594908736346716827_);}
	.st5{fill:url(#SVGID_00000135681311565539808030000013418178821966176443_);}
	.st6{fill:url(#SVGID_00000022562312252699815960000016230209356948376968_);}
</style>
<path class="st0" d="M625.8,254.6"/>
<g>
	<g>
		<path class="st1" d="M465.1,835c5.2,5.5,7.8,13.3,7.8,23.5v42.6h-15.1v-41c0-6.4-1.6-11.3-4.8-14.8c-3.2-3.5-7.6-5.2-13.1-5.2
			c-5.9,0-10.6,1.9-14.1,5.6c-3.5,3.8-5.2,9.3-5.2,16.5v38.9h-15.1v-41c0-6.4-1.6-11.3-4.8-14.8c-3.2-3.5-7.6-5.2-13.1-5.2
			c-5.9,0-10.6,1.9-14.1,5.6c-3.5,3.8-5.2,9.3-5.2,16.5v38.9H353V828h15.1v15.2c1.9-5.3,5-9.4,9.3-12.2s9.4-4.2,15.2-4.2
			c6.1,0,11.4,1.5,15.9,4.5c4.5,3,7.7,7.3,9.8,13c2.1-5.5,5.5-9.8,10.2-12.9c4.7-3.1,10-4.6,15.9-4.6
			C453,826.8,459.9,829.5,465.1,835z"/>
		<path class="st1" d="M557.9,867.5h-56.2c0.3,7.5,2.3,13.1,6.2,16.7c3.9,3.6,8.7,5.4,14.5,5.4c5,0,9.3-1.3,12.8-3.8
			c3.5-2.6,5.6-6,6.4-10.2h16.2c-1,5.1-3,9.7-6.1,13.7c-3.1,4-7.1,7.1-12.1,9.3S529.1,902,523,902c-7.1,0-13.3-1.5-18.8-4.5
			s-9.7-7.3-12.8-13c-3.1-5.7-4.6-12.3-4.6-20c0-7.6,1.5-14.2,4.6-19.9c3.1-5.7,7.4-10,12.8-13s11.7-4.5,18.8-4.5
			c7.2,0,13.4,1.5,18.8,4.5c5.3,3,9.5,7,12.3,12.2c2.9,5.2,4.3,10.9,4.3,17.3C558.4,863.5,558.2,865.7,557.9,867.5z M540.7,848.6
			c-1.8-3.2-4.3-5.6-7.4-7.2s-6.6-2.3-10.3-2.3c-5.9,0-10.9,1.8-14.9,5.4c-4,3.6-6.1,9-6.5,16h41.5
			C543.3,855.9,542.5,851.9,540.7,848.6z"/>
		<path class="st1" d="M640.4,828v73.1h-15.2v-15.9c-1.9,5.4-5.1,9.6-9.7,12.5c-4.6,3-10,4.5-16,4.5c-8.5,0-15.3-2.7-20.4-8.2
			c-5.1-5.5-7.7-13.3-7.7-23.5V828h15.1v40.8c0,6.6,1.7,11.7,5,15.3s8,5.4,13.8,5.4c6,0,10.8-2,14.5-5.8s5.4-9.5,5.4-17V828
			L640.4,828L640.4,828z"/>
		<path class="st1" d="M717.5,831.6c5,3,8.9,7.3,11.7,13s4.2,12.3,4.2,19.9c0,7.7-1.4,14.4-4.2,20c-2.8,5.7-6.7,10-11.7,13
			s-10.7,4.5-17,4.5c-6.6,0-12.3-1.6-17-4.9c-4.7-3.3-8-7.6-9.8-13v17h-15.1V803h15.1v42c1.8-5.4,5.1-9.7,9.8-13
			c4.7-3.3,10.3-4.9,17-4.9C706.8,827.1,712.5,828.6,717.5,831.6z M684.4,843.3c-3.4,2-6,4.8-8,8.5c-2,3.7-2.9,7.9-2.9,12.7
			c0,4.9,1,9.1,2.9,12.7c1.9,3.6,4.6,6.4,8,8.4c3.4,2,7.2,3,11.4,3c6.7,0,12.1-2.1,16.2-6.4s6.1-10.2,6.1-17.7
			c0-7.4-2-13.3-6.1-17.6c-4.1-4.3-9.5-6.5-16.2-6.5C691.6,840.3,687.8,841.3,684.4,843.3z"/>
		<path class="st1" d="M763.2,802.9v98.2h-15.1v-98.2H763.2z"/>
		<path class="st1" d="M834,831.6c5.7,3,10.1,7.3,13.3,13s4.8,12.3,4.8,19.9c0,7.7-1.6,14.4-4.8,20c-3.2,5.7-7.6,10-13.3,13
			c-5.7,3-12,4.5-19.1,4.5s-13.4-1.5-19-4.5c-5.6-3-10-7.4-13.3-13.1c-3.2-5.7-4.8-12.3-4.8-20c0-7.6,1.6-14.2,4.8-19.9
			c3.2-5.7,7.7-10,13.3-13s12-4.5,19-4.5S828.4,828.6,834,831.6z M804.2,842.9c-3.3,1.8-5.9,4.5-7.9,8.2s-3,8.2-3,13.5
			c0,5.4,1,9.9,3,13.5s4.6,6.3,7.9,8.1s6.8,2.7,10.7,2.7s7.5-0.9,10.7-2.7s5.9-4.5,7.9-8.1c2-3.6,3-8.1,3-13.5c0-5.3-1-9.8-3-13.5
			c-2-3.7-4.6-6.4-7.9-8.2c-3.3-1.8-6.8-2.7-10.7-2.7S807.5,841.1,804.2,842.9z"/>
		<path class="st1" d="M909.9,901.1L892,875.2l-15.7,25.9h-16.8l24.1-37.9L859.3,828h17.1l17.5,25.2l15.5-25.2h16.7L902,864.9
			l25.1,36.2H909.9z"/>
	</g>
	<g>
		<g>
			
				<linearGradient id="SVGID_1_" gradientUnits="userSpaceOnUse" x1="264.4029" y1="503.8083" x2="811.1317" y2="758.7521" gradientTransform="matrix(1 0 0 -1 0 1021.89)">
				<stop  offset="0" style="stop-color:#FDD210"/>
				<stop  offset="1" style="stop-color:#E32055"/>
			</linearGradient>
			<path class="st2" d="M367.6,502.5l60.6-35c6.7-3.8,10.6-10.7,10.6-18.4c0-7.7-4-14.6-10.6-18.4l-20.6-11.9v51.8L367.6,502.5z"/>
		</g>
		<g>
			
				<linearGradient id="SVGID_00000159435362463398095000000005122625409216186014_" gradientUnits="userSpaceOnUse" x1="322.8369" y1="720.7156" x2="867.6438" y2="466.668" gradientTransform="matrix(1 0 0 -1 0 1021.89)">
				<stop  offset="0" style="stop-color:#CF1D7B"/>
				<stop  offset="1" style="stop-color:#502776"/>
			</linearGradient>
			<path style="fill:url(#SVGID_00000159435362463398095000000005122625409216186014_);" d="M847.3,428l76.5-44.2V165.3H705.2
				L661,241.8c-9.3,16.2-32.7,16.2-42,0l-44.2-76.5H356.2v218.6l76.5,44.2c16.2,9.3,16.2,32.7,0,42l-76.5,44.2v218.6h218.6V519.4
				l65.2,45.2l65.2-45.2v213.5h218.6V514.3l-76.5-44.2C831.1,460.8,831.1,437.4,847.3,428z"/>
		</g>
		<g>
			
				<linearGradient id="SVGID_00000101074070790902218080000011011927351961330104_" gradientUnits="userSpaceOnUse" x1="541.303" y1="397.5699" x2="1008.8893" y2="615.6088" gradientTransform="matrix(1 0 0 -1 0 1021.89)">
				<stop  offset="0" style="stop-color:#FDD210"/>
				<stop  offset="1" style="stop-color:#E32055"/>
			</linearGradient>
			<path style="fill:url(#SVGID_00000101074070790902218080000011011927351961330104_);" d="M851.8,467.5l60.6,35l-40-31.9v-51.8
				l-20.6,11.9c-6.7,3.8-10.6,10.7-10.6,18.4C841.2,456.8,845.1,463.6,851.8,467.5z"/>
		</g>
		<g>
			
				<linearGradient id="SVGID_00000021085286459458283900000017919578926978497185_" gradientUnits="userSpaceOnUse" x1="153.28" y1="643.4482" x2="925.2642" y2="1003.4303" gradientTransform="matrix(1 0 0 -1 0 1021.89)">
				<stop  offset="0" style="stop-color:#FDD210"/>
				<stop  offset="1" style="stop-color:#E32055"/>
			</linearGradient>
			<path style="fill:url(#SVGID_00000021085286459458283900000017919578926978497185_);" d="M574.8,159.3c1.1,0,2.1,0.6,2.6,1.5
				l44.2,76.5c3.8,6.7,10.7,10.6,18.4,10.6c7.7,0,14.6-4,18.4-10.6l44.2-76.5c0.5-0.9,1.5-1.5,2.6-1.5h210l-46.9-37.4H694.4
				l-30.8,53.3c-4.9,8.5-13.8,13.6-23.6,13.6l0,0c-9.9,0-18.7-5.1-23.6-13.6l-30.8-53.3H411.7l-46.9,37.4H574.8z"/>
		</g>
		<g>
			
				<linearGradient id="SVGID_00000136398453169679111530000006497068636338962602_" gradientUnits="userSpaceOnUse" x1="356.7652" y1="269.1704" x2="1056.3048" y2="595.371" gradientTransform="matrix(1 0 0 -1 0 1021.89)">
				<stop  offset="0" style="stop-color:#FDD210"/>
				<stop  offset="1" style="stop-color:#E32055"/>
			</linearGradient>
			<path style="fill:url(#SVGID_00000136398453169679111530000006497068636338962602_);" d="M636.6,569.5l-55.7-38.6v179.5l54-93.5
				c1.1-1.9,3.1-3,5.2-3c2.2,0,4.1,1.2,5.2,3l54,93.5V530.9l-55.7,38.6c-1,0.7-2.2,1.1-3.4,1.1S637.6,570.2,636.6,569.5z"/>
		</g>
	</g>
</g>
</svg>
